<?xml version="1.0" encoding="UTF-8"?>
<svg version="1.1" xmlns="http://www.w3.org/2000/svg" width="50" height="50">
<path d="M0 0 C1.12535156 0.00580078 1.12535156 0.00580078 2.2734375 0.01171875 C3.02367188 0.00785156 3.77390625 0.00398437 4.546875 0 C10.14682697 0.01010822 10.14682697 0.01010822 11.2734375 1.13671875 C11.31424533 3.13630239 11.31598106 5.13717129 11.2734375 7.13671875 C12.10488281 7.10191406 12.93632813 7.06710938 13.79296875 7.03125 C15.42298828 6.99064453 15.42298828 6.99064453 17.0859375 6.94921875 C18.16488281 6.91441406 19.24382813 6.87960938 20.35546875 6.84375 C23.2734375 7.13671875 23.2734375 7.13671875 24.9375 8.14453125 C27.05141733 11.29686412 26.64019855 14.6412192 26.56640625 18.3046875 C26.56338501 19.00936157 26.56036377 19.71403564 26.55725098 20.44006348 C26.54157414 23.06826457 26.49968991 25.69625661 26.4609375 28.32421875 C26.3990625 34.20234375 26.3371875 40.08046875 26.2734375 46.13671875 C10.4334375 46.13671875 -5.4065625 46.13671875 -21.7265625 46.13671875 C-21.7884375 40.25859375 -21.8503125 34.38046875 -21.9140625 28.32421875 C-21.94137451 26.47207764 -21.96868652 24.61993652 -21.99682617 22.71166992 C-22.00558847 21.24268242 -22.01323302 19.77368764 -22.01953125 18.3046875 C-22.03487915 17.54273071 -22.05022705 16.78077393 -22.06604004 15.99572754 C-22.06869454 10.64691565 -22.06869454 10.64691565 -20.390625 8.14453125 C-17.79873226 6.57479339 -15.52483366 6.85290355 -12.5390625 6.94921875 C-11.45238281 6.97628906 -10.36570312 7.00335937 -9.24609375 7.03125 C-7.99892578 7.08345703 -7.99892578 7.08345703 -6.7265625 7.13671875 C-6.7471875 6.16734375 -6.7678125 5.19796875 -6.7890625 4.19921875 C-6.68257397 -1.01871946 -4.69027033 0.00846619 0 0 Z M-4.7265625 4.13671875 C-4.7265625 5.12671875 -4.7265625 6.11671875 -4.7265625 7.13671875 C-0.1065625 7.13671875 4.5134375 7.13671875 9.2734375 7.13671875 C8.70218396 3.39396663 8.70218396 3.39396663 7.2734375 2.13671875 C5.63113386 2.01217015 3.98291474 1.96103351 2.3359375 1.94921875 C1.44003906 1.93503906 0.54414063 1.92085938 -0.37890625 1.90625 C-2.91770784 1.90477106 -2.91770784 1.90477106 -4.7265625 4.13671875 Z M-0.2265625 16.19921875 C-1.0515625 16.83859375 -1.8765625 17.47796875 -2.7265625 18.13671875 C-3.31743334 23.15912093 -2.42682517 28.1473472 -1.7265625 33.13671875 C-2.9640625 33.81734375 -2.9640625 33.81734375 -4.2265625 34.51171875 C-5.0515625 35.04796875 -5.8765625 35.58421875 -6.7265625 36.13671875 C-6.7265625 36.79671875 -6.7265625 37.45671875 -6.7265625 38.13671875 C-0.4565625 38.13671875 5.8134375 38.13671875 12.2734375 38.13671875 C9.74777915 33.97860487 9.74777915 33.97860487 6.2734375 33.13671875 C6.4384375 32.14671875 6.6034375 31.15671875 6.7734375 30.13671875 C7.32667357 26.01259534 7.68974911 22.29983486 7.2734375 18.13671875 C3.8390555 15.21037946 3.8390555 15.21037946 -0.2265625 16.19921875 Z " fill="#000000" transform="translate(22.7265625,1.86328125)"/>
</svg>
